<svg width="22" height="20" viewBox="0 0 22 20" fill="none" xmlns="http://www.w3.org/2000/svg">
<path d="M10.4648 3.94849L11 4.49367L11.5352 3.94849L12.0092 3.46568C12.5667 2.89775 13.2402 2.45674 13.9836 2.17274L14.2621 2.06638L13.9966 1.37144L14.2621 2.06638C15.5136 1.58831 16.9124 1.65152 18.1182 2.23871L18.4466 1.56442L18.1182 2.23871C19.2655 2.79743 20.1482 3.7897 20.5667 4.99381L20.6437 5.21534C20.9972 6.23257 20.9496 7.34632 20.5105 8.32966C20.3061 8.7874 20.022 9.20518 19.6715 9.56352L10.9979 18.4296L2.29646 9.60309C1.92142 9.22266 1.62288 8.77377 1.41706 8.28079C1.02132 7.33291 0.988956 6.2724 1.32616 5.30216L1.43015 5.00296C1.8509 3.79235 2.734 2.79768 3.88626 2.23654C5.09138 1.64965 6.48574 1.58806 7.73792 2.06638L8.01635 2.17274L8.28398 1.47212L8.01635 2.17274C8.75982 2.45674 9.43329 2.89775 9.99083 3.46568L10.4648 3.94849Z" stroke="#FF0000" stroke-width="1.5"/>
</svg>
